<svg width="332" height="561" viewBox="0 0 332 561" fill="none" xmlns="http://www.w3.org/2000/svg">
<path d="M18.5258 312.89C35.8227 274.657 58.2518 239.688 78.757 203.654C100.439 165.553 121.089 126.936 136.053 85.5704C144.847 61.2623 152.122 36.5526 155.796 10.8842C157.087 1.86464 163.947 -2.3948 170.779 1.37059C173.845 3.05997 175.273 5.82974 175.765 9.05158C186.111 76.8194 215.597 137.084 248.805 195.923C267.469 228.993 287.896 261.069 304.924 295.058C315.99 317.148 326.179 339.668 329.647 364.391C336.633 414.196 326.637 459.861 294.458 499.436C266.721 533.55 230.597 553.408 187.168 559.295C119.283 568.496 52.0062 533.504 19.7115 473.019C6.57014 448.406 0.41099 422.042 0.0173738 394.343C-0.38677 365.901 6.27397 338.919 18.5258 312.89ZM221.609 227.088C225.315 233.409 229.02 239.731 232.729 246.051C250.093 275.634 267.922 304.984 281.382 336.645C301.949 385.025 301.051 432.414 274.123 478.412C272.444 481.279 270.812 484.253 274.476 486.692C277.981 489.026 279.947 486.331 281.833 483.892C301.993 457.814 311.758 428.044 312.484 395.333C312.951 374.332 309.13 353.982 301.273 334.383C289.141 304.12 272.948 275.981 256.483 247.988C223.365 191.68 190.611 135.207 170.754 72.432C170.026 70.1315 168.797 68.6156 166.268 68.4557C163.436 68.2766 162.192 69.996 161.19 72.3552C156.904 82.4422 155.744 92.4539 160.866 102.692C162.718 106.395 163.818 110.468 165.351 114.336C180.785 153.301 200.447 190.158 221.609 227.088ZM58.497 463.085C36.835 424.403 32.8368 383.424 43.4761 340.894C49.8239 315.519 62.017 292.443 73.9441 269.35C75.5714 266.199 76.5927 263.265 72.8306 261.245C69.2395 259.318 67.3847 261.904 65.7658 264.675C53.8292 285.108 42.7086 305.948 33.2882 327.689C20.6539 356.847 15.8269 387.206 21.6096 418.43C31.3911 471.245 61.2975 508.702 110.71 530.213C118.031 533.4 125.685 535.754 133.508 537.501C136.623 538.196 139.383 537.96 140.381 534.498C141.407 530.943 138.955 529.387 136.029 528.393C135.557 528.233 135.09 528.052 134.622 527.879C101.548 515.726 76.4352 494.167 58.497 463.085Z" fill="white"/>
</svg>
